<svg
  data-v-0dd9719b=""
  version="1.1"
  xmlns="http://www.w3.org/2000/svg"
  xmlns:xlink="http://www.w3.org/1999/xlink"
  width="100%"
  height="100%"
  viewBox="0 0 340.000000 250.000000"
  preserveAspectRatio="xMidYMid meet"
  color-interpolation-filters="sRGB"
  style="margin: auto"
  xmlns:svgjs="http://svgjs.com/svgjs"
>
  <rect
    data-v-0dd9719b=""
    x="0"
    y="0"
    width="100%"
    height="100%"
    fill="#fff"
    fill-opacity="0"
    class="background"
  ></rect>
  <rect
    data-v-0dd9719b=""
    x="0"
    y="0"
    width="100%"
    height="100%"
    fill="url(#watermark)"
    fill-opacity="1"
    class="watermarklayer"
  ></rect>
  <g
    data-v-0dd9719b=""
    fill="#333"
    class="icon-text-wrapper icon-svg-group iconsvg"
    transform="translate(48.23500061035156,94.6171760559082)"
  >
    <g class="iconsvg-imagesvg" transform="matrix(1,0,0,1,0,0)" opacity="1">
      <g>
        <rect
          fill="#333"
          fill-opacity="0"
          stroke-width="2"
          x="0"
          y="0"
          width="60"
          height="60.76564715414219"
          class="image-rect"
        ></rect>
        <svg
          x="0"
          y="0"
          width="60"
          height="60.76564715414219"
          filtersec="colorsb6567772923"
          class="image-svg-svg primary"
          style="overflow: visible"
        >
          <svg
            xmlns="http://www.w3.org/2000/svg"
            xlink="http://www.w3.org/1999/xlink"
            viewBox="0 0 98.74000549316406 100"
          >
            <defs>
              <linearGradient
                id="afe57ecf9-a2b5-4ae4-903f-d7b4efe8b6c8"
                x1="41.66"
                y1="50.23"
                x2="65.95"
                y2="8.17"
                gradientUnits="userSpaceOnUse"
              >
                <stop offset="0" stop-color="#6ee2f5"></stop>
                <stop offset="1" stop-color="#6454f0"></stop>
              </linearGradient>
              <linearGradient
                id="be5638582-3459-4df8-8a86-36bfec69f582"
                x1="51.8"
                y1="72.43"
                x2="98.74"
                y2="72.43"
                href="#afe57ecf9-a2b5-4ae4-903f-d7b4efe8b6c8"
              ></linearGradient>
              <linearGradient
                id="ccda3d736-ae24-424b-ae9b-f46d657ce5a9"
                x1="48.56"
                y1="67.78"
                x2="0"
                y2="67.78"
                href="#afe57ecf9-a2b5-4ae4-903f-d7b4efe8b6c8"
              ></linearGradient>
            </defs>
            <path
              d="M74.46 13.09L51.8 0a48.58 48.58 0 0 1-24.28 42.06l22.21 12.82.45.26a48.53 48.53 0 0 0 24.28-42z"
              fill="url(#afe57ecf9-a2b5-4ae4-903f-d7b4efe8b6c8)"
            ></path>
            <path
              d="M76.08 100l22.66-13.09a48.56 48.56 0 0 1-24.28-42L51.8 57.94A48.56 48.56 0 0 0 76.08 100z"
              fill="url(#be5638582-3459-4df8-8a86-36bfec69f582)"
            ></path>
            <path
              d="M48.56 84.12V58A48.58 48.58 0 0 0 0 57.94v26.17a48.58 48.58 0 0 1 48.56 0z"
              fill="url(#ccda3d736-ae24-424b-ae9b-f46d657ce5a9)"
            ></path>
          </svg>
        </svg>
        <!---->
      </g>
    </g>
    <g transform="translate(67,17.612823486328125)">
      <g
        data-gra="path-name"
        fill-rule=""
        class="tp-name iconsvg-namesvg"
        opacity="1"
        transform="matrix(1,0,0,1,0,0)"
      >
        <g transform="scale(1)">
          <g>
            <path
              d="M7.2-24.83L2.41-24.83 2.41 0 7.2 0 7.2-6.99 10.86-10.71 19.33 0 25.61 0 14.23-13.98 25.08-24.83 18.8-24.83 7.2-12.74ZM45.87-16.67C45.87-22.24 41.93-25.19 35.58-25.19 29.87-25.19 26.04-22.35 26.04-18.52 26.04-9.47 41.08-12.74 41.08-6.88 41.08-4.86 38.99-3.55 36.01-3.55 32.57-3.55 30.54-5.32 30.54-8.19L25.68-8.19C25.68-2.31 29.83 0.35 36.11 0.35 41.86 0.35 45.87-2.52 45.87-6.88 45.87-15.89 30.69-13.16 30.69-18.45 30.69-20.58 33.28-21.32 35.62-21.32 38.85-21.32 41.08-19.51 41.08-16.67ZM59.99 0L70.2 0C77.83 0 79.96-2.98 79.96-6.92 79.96-10.54 76.59-12.56 72.55-12.74L72.55-12.91C75.63-13.27 77.76-15.15 77.76-18.48 77.76-21.96 76.16-24.83 69.25-24.83L59.99-24.83ZM64.78-14.51L64.78-21.07 68.72-21.07C71.87-21.07 73.22-20.11 73.22-17.95 73.22-15.4 71.23-14.51 68.54-14.51ZM64.78-3.8L64.78-10.89 69-10.89C72.51-10.89 74.89-9.65 74.89-7.17 74.89-4.68 73.08-3.8 69.07-3.8ZM87.73-7.41L87.73-24.83 82.91-24.83 82.91-7.41ZM82.91 0L100.96 0 100.96-4.68 82.91-4.68ZM114.87-25.19L114.87-20.65C119.55-20.65 123.1-17.95 123.1-12.42 123.1-6.88 119.55-4.15 114.87-4.15 110.33-4.15 106.82-6.88 106.82-12.42 106.82-12.42 101.99-12.42 101.99-12.42 101.99-4.22 107.7 0.35 114.87 0.35 122.21 0.35 127.89-3.87 127.89-12.42 127.89-20.58 122.21-25.19 114.87-25.19ZM135.27-12.42C135.27-17.24 138.6-20.97 143.57-20.97 147.36-20.97 149.81-19.19 150.73-16.35L155.81-16.35C154.6-22.56 150.31-25.19 143.53-25.19 135.62-25.19 130.62-20.22 130.62-12.42ZM143.18 0L151.41-5.92 151.41 0 155.88 0C155.88-0.18 155.88-13.05 155.88-13.23L142.68-13.23 142.68-9.76 149.85-9.76 136.29 0ZM168.68-21.32C171.91-21.32 174.15-19.51 174.15-16.67L178.94-16.67C178.94-22.24 175-25.19 168.65-25.19ZM159.11-18.52C159.11-9.47 174.15-12.74 174.15-6.88 174.15-4.86 172.05-3.55 169.07-3.55 165.63-3.55 163.61-5.32 163.61-8.19L158.75-8.19C158.75-2.31 162.9 0.35 169.18 0.35 174.93 0.35 178.94-2.52 178.94-6.88 178.94-15.89 163.75-13.16 163.75-18.45Z"
              transform="translate(-2.4100000858306885, 25.190000534057617)"
            ></path>
          </g>
          <!---->
          <!---->
          <!---->
          <!---->
          <!---->
          <!---->
          <!---->
        </g>
      </g>
      <!---->
    </g>
  </g>
  <defs v-gra="od"></defs>
</svg>
